<?xml version="1.0" encoding="utf-8"?>
<!-- Generator: Adobe Illustrator 27.5.0, SVG Export Plug-In . SVG Version: 6.00 Build 0)  -->
<svg version="1.1" xmlns="http://www.w3.org/2000/svg" xmlns:xlink="http://www.w3.org/1999/xlink" x="0px" y="0px"
	 viewBox="0 0 500 500" style="enable-background:new 0 0 500 500;" xml:space="preserve">
<g id="Background_Simple">
	<g>
		<path style="fill:#92E3A9;" d="M196.697,426.199c5.286,4.647,10.682,9.15,16.406,13.211
			c66.063,46.878,190.287,37.834,219.646-48.859c6.997-20.662,4.203-41.225,6.03-62.494c4.155-48.374,32.084-87.259,40.848-133.979
			c6.794-36.216-10.233-72.554-32.695-100.031c-24.408-29.859-53.158-46.129-91.299-52.119
			c-42.758-6.715-77.759,13.505-112.594,35.311c-15.667,9.807-31.832,19.883-49.602,25.44c-22.247,6.958-46.023,9.202-68.671,14.635
			c-23.553,5.651-47.018,13.996-65.895,29.174c-60.451,48.607-37.105,156.307,13.961,203.24
			c18.076,16.613,41.284,25.802,63.368,35.699C160.042,396.11,177.14,409.006,196.697,426.199z"/>
		<path style="opacity:0.7;fill:#FFFFFF;" d="M196.697,426.199c5.286,4.647,10.682,9.15,16.406,13.211
			c66.063,46.878,190.287,37.834,219.646-48.859c6.997-20.662,4.203-41.225,6.03-62.494c4.155-48.374,32.084-87.259,40.848-133.979
			c6.794-36.216-10.233-72.554-32.695-100.031c-24.408-29.859-53.158-46.129-91.299-52.119
			c-42.758-6.715-77.759,13.505-112.594,35.311c-15.667,9.807-31.832,19.883-49.602,25.44c-22.247,6.958-46.023,9.202-68.671,14.635
			c-23.553,5.651-47.018,13.996-65.895,29.174c-60.451,48.607-37.105,156.307,13.961,203.24
			c18.076,16.613,41.284,25.802,63.368,35.699C160.042,396.11,177.14,409.006,196.697,426.199z"/>
	</g>
</g>
<g id="Plant">
	<g>
		<path style="fill:#263238;" d="M152.136,370.257c-4.206,1.311-14,0.009-14.007,0.008c-0.102-0.014,2.818-6.194,3.046-6.564
			c2.652-4.268,10.282-10.958,15.743-9.599c3.934,0.979,5.714,5.22,4.398,8.88C159.973,366.721,155.719,369.139,152.136,370.257z"/>
		<path style="fill:#263238;" d="M60.845,367.512c-0.092,0.045-1.067-6.721-1.079-7.155c-0.144-5.023,2.531-14.812,7.835-16.691
			c3.821-1.353,7.645,1.202,8.567,4.98c0.942,3.859-1.272,8.223-3.644,11.132C69.739,363.193,60.852,367.509,60.845,367.512z"/>
		<path style="fill:#263238;" d="M62.553,439.848c3.287,0.421,9.783-1.429,11.605-1.976c0.298,2.798,0.656,5.566,1.139,8.275
			c0.233,1.164,0.396,2.366,0.683,3.471c0.266,1.119,0.529,2.227,0.789,3.324c0.619,2.25,1.186,4.343,1.816,6.422
			c0.311,1.053,0.629,2.04,0.944,3.059c-0.782-1.616-2.062-4.155-2.205-4.373c-2.414-3.698-9.253-9.424-14.023-8.12
			c-3.437,0.939-4.917,4.7-3.688,7.89c1.256,3.258,5.041,5.298,8.211,6.209c3.496,1.004,11.184-0.104,12.124-0.245
			c0.784,2.491,1.571,4.91,2.349,7.158c0.507,1.477,1.002,2.867,1.491,4.221h3.247c-0.643-1.65-1.3-3.36-1.979-5.205
			c-0.747-2.017-1.505-4.166-2.262-6.384c0.862-0.359,7.521-3.191,10.206-5.782c2.808,1.788,6.006,3.3,6.569,3.563
			c-0.72,2.51-1.398,4.961-1.99,7.266c-0.601,2.319-1.125,4.479-1.61,6.543h3.147c0.397-1.853,0.82-3.775,1.308-5.84
			c0.489-2.095,1.043-4.306,1.635-6.573c0.951,0.182,8.572,1.591,12.1,0.731c3.204-0.782,7.069-2.669,8.454-5.873
			c1.356-3.138,0.028-6.955-3.368-8.032c-4.715-1.494-11.777,3.953-14.338,7.551c-0.164,0.23-1.795,3.171-2.596,4.69
			c0.362-1.368,0.718-2.729,1.119-4.148c0.561-2.045,1.221-4.188,1.848-6.268c0.365-1.067,0.733-2.144,1.105-3.232
			c0.353-1.106,0.823-2.117,1.235-3.196c0.637-1.566,1.373-3.148,2.104-4.73c2.048,0.697,8.093,2.637,11.275,2.359
			c3.286-0.288,7.391-1.567,9.246-4.525c1.816-2.897,1.082-6.872-2.112-8.45c-4.434-2.191-12.24,2.123-15.316,5.292
			c-0.1,0.103-0.68,0.84-1.361,1.721c0.761-1.522,1.514-3.045,2.337-4.561c2.331-4.303,4.84-8.615,7.336-12.945
			c0.521-0.902,1.026-1.812,1.543-2.716c1.721,0.595,8.251,2.755,11.585,2.464c3.286-0.288,7.392-1.568,9.246-4.526
			c1.816-2.896,1.082-6.871-2.112-8.45c-4.433-2.19-12.24,2.123-15.317,5.292c-0.11,0.113-0.801,0.996-1.566,1.988
			c1.323-2.371,2.612-4.753,3.817-7.156c2.113-4.199,3.966-8.45,5.436-12.709c0.604,0.216,8.21,2.903,11.915,2.578
			c3.286-0.288,7.392-1.567,9.246-4.525c1.816-2.897,1.082-6.872-2.113-8.45c-4.433-2.191-12.24,2.124-15.316,5.292
			c-0.218,0.225-2.695,3.433-3.542,4.608c0.017-0.051,0.041-0.101,0.058-0.152c1.501-4.486,2.381-8.954,3.01-13.231
			c0.633-4.267,0.866-8.339,0.984-12.089c0.127-3.754,0.012-7.195-0.114-10.238c-0.081-1.648-0.186-3.154-0.299-4.557
			c0.016,0.013,0.083,0.064,0.083,0.064c0.073,0.055,2.06-5.615,2.144-5.987c0.976-4.307,0.329-13.202-3.927-15.722
			c-3.067-1.815-6.797-0.26-8.233,2.843c-1.466,3.168-0.297,7.307,1.256,10.217c1.591,2.982,7.07,7.341,8.442,8.405
			c0.088,1.461,0.166,3.022,0.214,4.751c0.06,3.039,0.1,6.471-0.108,10.205c-0.053,0.995-0.15,2.064-0.225,3.1
			c-0.236-1.773-0.593-4.204-0.653-4.436c-1.119-4.272-5.792-11.869-10.73-12.144c-3.557-0.198-6.152,2.902-5.997,6.317
			c0.159,3.487,3.104,6.622,5.823,8.489c2.837,1.948,9.881,3.301,11.425,3.58c-0.202,2.294-0.464,4.646-0.88,7.082
			c-0.71,4.208-1.689,8.655-3.269,13.041c-0.153-0.025-0.125-0.021-0.278-0.046c-0.017-1.663-0.135-5.158-0.177-5.446
			c-0.643-4.369-4.453-12.433-9.331-13.248c-3.514-0.587-6.434,2.208-6.654,5.62c-0.226,3.484,2.357,6.923,4.855,9.077
			c2.878,2.483,10.933,4.806,11.235,4.893c-1.523,4.076-3.398,8.143-5.534,12.169c-1.544,2.92-3.229,5.813-4.945,8.7
			c0.019-1.168-0.131-5.754-0.179-6.083c-0.643-4.369-4.454-12.433-9.332-13.248c-3.514-0.587-6.433,2.209-6.655,5.62
			c-0.225,3.484,2.358,6.923,4.855,9.077c2.809,2.424,10.517,4.686,11.167,4.873c-0.781,1.311-1.554,2.623-2.348,3.931
			c-2.586,4.27-5.197,8.538-7.644,12.831c-0.848,1.487-1.629,2.983-2.419,4.479c-0.025-1.752-0.134-4.939-0.174-5.211
			c-0.642-4.369-4.453-12.434-9.331-13.249c-3.515-0.587-6.433,2.208-6.654,5.619c-0.225,3.484,2.357,6.923,4.855,9.078
			c2.508,2.165,8.948,4.205,10.77,4.755c-1.294,2.498-2.523,5.004-3.616,7.53c-0.447,1.099-0.975,2.192-1.344,3.272
			c-0.396,1.08-0.788,2.149-1.175,3.208c-0.725,2.218-1.407,4.277-2.028,6.359c-0.322,1.051-0.601,2.048-0.901,3.072
			c0.239-1.779,0.572-4.603,0.574-4.863c0.027-4.416-2.518-12.965-7.216-14.509c-3.385-1.113-6.694,1.208-7.429,4.546
			c-0.093,0.424-0.143,0.854-0.155,1.288c-2.262,3.228-3.576,7.929-3.676,10.862c-0.01,0.282,0.251,3.635,0.421,5.343
			c-0.452-1.342-0.907-2.672-1.355-4.077c-0.66-2.015-1.292-4.167-1.917-6.248c-0.284-1.091-0.571-2.193-0.861-3.306
			c-0.316-1.117-0.48-2.22-0.733-3.346c-0.332-1.657-0.591-3.383-0.854-5.106c2.093-0.548,8.205-2.265,10.705-4.252
			c2.582-2.053,5.301-5.385,5.216-8.875c-0.083-3.418-2.888-6.329-6.424-5.883c-4.907,0.619-9.038,8.523-9.855,12.863
			c-0.026,0.141-0.104,1.076-0.186,2.185c-0.205-1.688-0.416-3.375-0.567-5.093c-0.43-4.876-0.715-9.856-1.023-14.845
			c-0.064-1.039-0.143-2.077-0.211-3.117c1.763-0.453,8.402-2.253,11.022-4.336c2.582-2.053,5.301-5.385,5.215-8.876
			c-0.083-3.417-2.888-6.328-6.424-5.882c-4.906,0.619-9.037,8.523-9.855,12.863c-0.029,0.155-0.12,1.272-0.209,2.522
			c-0.206-2.708-0.445-5.405-0.764-8.074c-0.555-4.668-1.354-9.237-2.478-13.6c0.624-0.153,8.449-2.108,11.361-4.422
			c2.582-2.052,5.3-5.385,5.215-8.876c-0.083-3.417-2.889-6.328-6.423-5.882c-4.907,0.619-9.038,8.524-9.856,12.863
			c-0.058,0.308-0.354,4.35-0.412,5.798c-0.014-0.051-0.021-0.107-0.035-0.159c-1.223-4.57-2.953-8.782-4.789-12.696
			c-1.826-3.908-3.877-7.433-5.848-10.626c-1.964-3.201-3.959-6.008-5.743-8.476c-0.978-1.329-1.896-2.528-2.765-3.636
			c0.021,0.001,0.105,0.007,0.105,0.007c0.091,0.006-1.38-5.819-1.514-6.177c-1.563-4.13-7.01-11.193-11.949-10.946
			c-3.558,0.178-5.813,3.533-5.299,6.912c0.525,3.452,3.784,6.259,6.683,7.83c2.972,1.609,9.946,2.223,11.678,2.353
			c0.879,1.169,1.805,2.429,2.799,3.843c1.727,2.502,3.653,5.342,5.54,8.572c0.504,0.859,1.013,1.804,1.522,2.71
			c-1.175-1.35-2.813-3.179-2.992-3.34c-3.289-2.945-11.378-6.704-15.648-4.208c-3.076,1.797-3.531,5.814-1.517,8.577
			c2.056,2.821,6.241,3.811,9.54,3.868c3.441,0.06,10.063-2.698,11.505-3.317c1.096,2.025,2.175,4.131,3.172,6.393
			c1.729,3.901,3.367,8.149,4.467,12.678c-0.142,0.063-0.116,0.051-0.258,0.116c-0.932-1.378-2.957-4.226-3.151-4.442
			c-2.946-3.29-10.573-7.914-15.091-5.902c-3.255,1.449-4.148,5.391-2.45,8.358c1.735,3.031,5.786,4.474,9.057,4.893
			c3.77,0.483,11.769-2.022,12.07-2.117c0.978,4.239,1.658,8.666,2.098,13.203c0.322,3.287,0.514,6.629,0.675,9.985
			c-0.629-0.985-3.284-4.727-3.506-4.975c-2.946-3.29-10.573-7.913-15.091-5.902c-3.255,1.449-4.148,5.391-2.45,8.358
			c1.734,3.03,5.786,4.474,9.057,4.893c3.681,0.472,11.357-1.894,12.002-2.096c0.073,1.524,0.152,3.045,0.211,4.573
			c0.199,4.988,0.376,9.989,0.702,14.919c0.112,1.708,0.287,3.386,0.453,5.07c-0.988-1.447-2.837-4.045-3.021-4.25
			c-2.947-3.29-10.574-7.913-15.092-5.903c-3.255,1.45-4.148,5.391-2.45,8.359C55.23,437.986,59.281,439.429,62.553,439.848z"/>
	</g>
</g>
<g id="Graphics">
	<g>
		<path style="fill:none;stroke:#263238;stroke-miterlimit:10;" d="M446.303,194.896c0-2.1-1.702-3.802-3.802-3.802
			c-2.1,0-3.802,1.702-3.802,3.802c0,2.1,1.702,3.802,3.802,3.802C444.601,198.698,446.303,196.996,446.303,194.896z"/>
		<path style="fill:none;stroke:#263238;stroke-miterlimit:10;" d="M103.831,162.75c0-2.1-1.702-3.802-3.802-3.802
			c-2.1,0-3.802,1.702-3.802,3.802c0,2.1,1.702,3.802,3.802,3.802C102.128,166.552,103.831,164.85,103.831,162.75z"/>
		<path style="fill:none;stroke:#263238;stroke-miterlimit:10;" d="M440.172,362.608c0-2.1-1.702-3.802-3.802-3.802
			c-2.1,0-3.802,1.702-3.802,3.802c0,2.1,1.702,3.802,3.802,3.802C438.47,366.41,440.172,364.708,440.172,362.608z"/>
		<path style="fill:none;stroke:#263238;stroke-miterlimit:10;" d="M351.732,308.16c0-2.1-1.702-3.802-3.802-3.802
			c-2.1,0-3.802,1.702-3.802,3.802c0,2.1,1.702,3.802,3.802,3.802C350.03,311.962,351.732,310.26,351.732,308.16z"/>
		<path style="fill:none;stroke:#263238;stroke-miterlimit:10;" d="M278.025,86.522c0-2.1-1.702-3.802-3.802-3.802
			s-3.802,1.702-3.802,3.802c0,2.1,1.702,3.802,3.802,3.802S278.025,88.622,278.025,86.522z"/>
		<path style="fill:none;stroke:#263238;stroke-miterlimit:10;" d="M110.877,271.689c0-2.1-1.702-3.802-3.802-3.802
			c-2.1,0-3.802,1.702-3.802,3.802c0,2.1,1.702,3.802,3.802,3.802C109.175,275.491,110.877,273.789,110.877,271.689z"/>
		<g>
			<line style="fill:none;stroke:#263238;stroke-miterlimit:10;" x1="416.676" y1="138.984" x2="416.676" y2="150.306"/>
			<line style="fill:none;stroke:#263238;stroke-miterlimit:10;" x1="422.337" y1="144.645" x2="411.015" y2="144.645"/>
		</g>
		<g>
			<line style="fill:none;stroke:#263238;stroke-miterlimit:10;" x1="388.822" y1="37.302" x2="388.822" y2="48.624"/>
			<line style="fill:none;stroke:#263238;stroke-miterlimit:10;" x1="394.484" y1="42.963" x2="383.161" y2="42.963"/>
		</g>
		<g>
			<line style="fill:none;stroke:#263238;stroke-miterlimit:10;" x1="72.689" y1="81.973" x2="72.689" y2="93.296"/>
			<line style="fill:none;stroke:#263238;stroke-miterlimit:10;" x1="78.35" y1="87.634" x2="67.028" y2="87.634"/>
		</g>
		<g>
			<line style="fill:none;stroke:#263238;stroke-miterlimit:10;" x1="28.766" y1="233.955" x2="28.766" y2="245.277"/>
			<line style="fill:none;stroke:#263238;stroke-miterlimit:10;" x1="34.427" y1="239.616" x2="23.105" y2="239.616"/>
		</g>
		<g>
			<line style="fill:none;stroke:#263238;stroke-miterlimit:10;" x1="382.877" y1="382.816" x2="382.877" y2="394.138"/>
			<line style="fill:none;stroke:#263238;stroke-miterlimit:10;" x1="388.538" y1="388.477" x2="377.216" y2="388.477"/>
		</g>
		<g>
			<line style="fill:none;stroke:#263238;stroke-miterlimit:10;" x1="242.44" y1="344.608" x2="242.44" y2="355.93"/>
			<line style="fill:none;stroke:#263238;stroke-miterlimit:10;" x1="248.101" y1="350.269" x2="236.779" y2="350.269"/>
		</g>
		<g>
			<line style="fill:none;stroke:#263238;stroke-miterlimit:10;" x1="94.904" y1="308.368" x2="94.904" y2="319.69"/>
			<line style="fill:none;stroke:#263238;stroke-miterlimit:10;" x1="100.565" y1="314.029" x2="89.243" y2="314.029"/>
		</g>
	</g>
</g>
<g id="Character">
	<g>
		<polygon style="fill:#FFFFFF;stroke:#263238;stroke-miterlimit:10;" points="273.96,422.109 276.863,436.965 288.816,436.965 
			287.792,422.45 		"/>
		<path style="fill:#263238;stroke:#263238;stroke-miterlimit:10;" d="M273.106,434.574l1.878,14.344
			c0,0-15.198,16.906-16.222,17.418c-1.025,0.512-8.367,3.586-8.367,3.586v4.44h25.102c0,0,1.195-2.22,3.074-3.074
			c1.878-0.854,3.928-1.195,3.928-1.195v4.098h12.295c0,0-0.171-13.149-1.025-17.076c-0.854-3.928-2.22-9.221-2.22-9.221
			l1.366-13.319H273.106z"/>
		<polygon style="fill:#FFFFFF;stroke:#263238;stroke-miterlimit:10;" points="333.856,422.996 343.077,439.389 355.031,435.632 
			350.591,422.142 		"/>
		<path style="fill:#263238;stroke:#263238;stroke-miterlimit:10;" d="M359.641,433.071l-20.833,8.367l10.246,11.1l7.001,22.199
			c0,0,1.878-0.341,6.831-1.366c4.952-1.025,7.172-2.391,7.172-2.391l-1.878-4.611c0,0-0.683-1.025,3.757-0.341
			c4.44,0.683,7.172,0.854,7.172,0.854s20.874-15.521,20.874-16.033s-4.993-1.214-4.993-1.214s-15.198,2.561-16.222,2.561
			c-1.025,0-14.002-4.269-14.002-4.269L359.641,433.071z"/>
		<path style="fill:#263238;stroke:#263238;stroke-miterlimit:10;" d="M251.638,264.657c0,0-1.88,15.054-0.498,34.131
			s21.013,125.247,21.013,125.247h19.63l-2.488-115.294l42.082,117.108l21.013-1.659l-20.24-97.201c0,0-3.114-46.113-12.616-66.188
			L251.638,264.657z"/>
		<path style="fill:#FFFFFF;stroke:#263238;stroke-miterlimit:10;" d="M251.638,264.657l-1.162,6.78l4.932-4.052
			c0,0,14.268,20.962,29.77,20.081s30.122-21.138,31.179-21.667c1.057-0.529,4.932-0.881,4.932-0.881l-1.756-4.118L251.638,264.657z
			"/>
		<path style="fill:#263238;stroke:#263238;stroke-miterlimit:10;" d="M298.444,103.334c0,0-11.522,0.501-18.034,7.013
			c-6.512,6.512-13.525,20.038-11.772,26.55c1.753,6.512,6.763,6.512,5.26,9.768c-1.503,3.256-14.781,9.912-23.546,28.25
			c-8.765,18.337,2.506,46.64,24.798,50.898c22.292,4.258,46.086,4.508,59.611-10.77c13.525-15.279,13.024-35.566,3.507-44.583
			c-9.518-9.017-16.781-16.531-15.78-19.536s5.009-4.007,3.256-9.518s-6.512-7.264-4.759-10.269s11.271-3.006,9.017-11.021
			C327.749,112.1,319.484,96.822,298.444,103.334z"/>
		<path style="fill:#92E3A9;stroke:#263238;stroke-miterlimit:10;" d="M282.052,168.061c0,0-17.135-2.356-21.847-0.428
			c-4.712,1.928-9.852,7.282-9.852,7.282l-25.488,16.92l-33.413,11.137l3.855,10.923c0,0,37.482-7.925,39.195-9.21
			c1.713-1.285,26.559-13.279,26.559-13.279s0.643,25.488,0.214,28.7c-0.428,3.213-9.638,44.55-9.638,44.55
			s18.42,3.427,32.984,2.142s34.912-5.997,34.912-5.997s-5.569-29.129-3.855-32.77c1.714-3.641,10.067-26.987,10.067-26.987
			l23.061,22.359l-15.165,20.929l7.552,11.597l29.349-28.815c1.261-1.238,1.331-3.243,0.155-4.562
			c-6.707-7.519-27.553-30.933-33.813-38.445c-7.496-8.996-12.638-8.551-16.708-10.05c-4.069-1.499-12.851-1.928-12.851-1.928
			L282.052,168.061z"/>
		<path style="fill:#FFFFFF;stroke:#263238;stroke-miterlimit:10;" d="M288.691,162.278c0,0-0.61-0.234-1.499-0.221
			c-1.012,0.016-2.387,0.352-3.641,1.72c-2.356,2.57-3.855,8.139-3.855,8.139l1.714,19.276l11.78-6.854l11.78,8.353
			c0,0,6.854-14.136,5.997-19.705c-0.857-5.569-7.068-8.353-7.068-8.353L288.691,162.278z"/>
		<path style="fill:#FFFFFF;stroke:#263238;stroke-miterlimit:10;" d="M288.691,152.854l-2.784,14.564c0,0-0.214,6.854,2.356,11.137
			c2.57,4.284,4.926,5.783,4.926,5.783s11.78-6.854,13.493-16.064l-1.285-12.637L288.691,152.854z"/>
		<g>
			<path style="fill:#FFFFFF;stroke:#263238;stroke-miterlimit:10;" d="M299.4,116.657c0,0-7.711,8.353-14.564,11.352
				c0,0-1.928,18.42-0.428,21.632c1.499,3.213,9.424,11.137,12.208,11.994c2.784,0.857,15.207-6.425,16.278-9.638
				c1.071-3.213,2.784-23.774,2.784-23.774S303.042,122.44,299.4,116.657z"/>
			<path style="fill:none;stroke:#263238;stroke-miterlimit:10;" d="M284.194,134.434c0,0-2.57-3.855-4.07,0
				c-1.499,3.855,3.641,8.567,3.641,8.567L284.194,134.434z"/>
			<path style="fill:none;stroke:#263238;stroke-miterlimit:10;" d="M314.822,137.004c0,0,2.57-1.928,3.213,1.071
				c0.643,2.999-4.284,8.353-4.284,8.353L314.822,137.004z"/>
			<path style="fill:#263238;" d="M295.117,137.218c0,1.183-0.719,2.142-1.606,2.142s-1.606-0.959-1.606-2.142
				c0-1.183,0.719-2.142,1.606-2.142S295.117,136.036,295.117,137.218z"/>
			<path style="fill:#263238;" d="M307,139.042c-0.081,1.18-0.865,2.087-1.75,2.027c-0.885-0.061-1.537-1.067-1.456-2.247
				c0.081-1.18,0.864-2.087,1.75-2.026C306.43,136.856,307.081,137.862,307,139.042z"/>
			<path style="fill:none;stroke:#263238;stroke-miterlimit:10;" d="M296.402,145.357c0,0,2.142,1.285,4.498,0.643"/>
			<path style="fill:none;stroke:#263238;stroke-miterlimit:10;" d="M291.69,147.713c0,0,5.569,5.569,13.922,1.499"/>
			<path style="fill:none;stroke:#263238;stroke-miterlimit:10;" d="M298.115,137.218c0-3.135-2.541-5.676-5.676-5.676
				c-3.135,0-5.676,2.541-5.676,5.676s2.541,5.676,5.676,5.676C295.574,142.894,298.115,140.353,298.115,137.218z"/>
			<path style="fill:none;stroke:#263238;stroke-miterlimit:10;" d="M311.823,138.932c0-3.135-2.541-5.676-5.676-5.676
				c-3.135,0-5.676,2.541-5.676,5.676c0,3.135,2.541,5.676,5.676,5.676C309.282,144.608,311.823,142.066,311.823,138.932z"/>
			<path style="fill:none;stroke:#263238;stroke-miterlimit:10;" d="M289.977,130.365c0,0,3.855-1.499,5.997,0.643"/>
			<path style="fill:none;stroke:#263238;stroke-miterlimit:10;" d="M303.684,131.436c0,0,4.284-2.57,7.711,1.499"/>
			<line style="fill:none;stroke:#263238;stroke-miterlimit:10;" x1="286.764" y1="137.218" x2="284.194" y2="134.434"/>
			<line style="fill:none;stroke:#263238;stroke-miterlimit:10;" x1="311.823" y1="138.932" x2="314.822" y2="137.004"/>
		</g>
		<polygon style="fill:#FFFFFF;stroke:#263238;stroke-miterlimit:10;" points="333.641,244.333 328.367,250.414 334.187,258.313 
			339.679,253.601 		"/>
		<g>
			<path style="fill:#FFFFFF;stroke:#263238;stroke-miterlimit:10;" d="M328.367,250.414l-3.086,2.352c0,0-12.749-3.88-13.581-3.742
				c-0.832,0.139-7.761,7.76-8.176,8.453c-0.416,0.693,0.139,1.247,1.109,0.97c0.97-0.277,2.772-0.97,2.772-0.97
				s-4.573,2.633-4.158,3.603c0.416,0.97,3.465,0,3.465,0s-2.91,2.079-1.524,2.633c1.386,0.554,3.88-0.416,3.88-0.416
				s-0.831,2.217,0.832,1.94c1.663-0.277,7.345-3.049,7.345-3.049s2.633,1.386,5.543,1.94c2.91,0.554,6.55-5.123,6.55-5.123
				l3.326-2.495L328.367,250.414z"/>
			<line style="fill:#FFFFFF;stroke:#263238;stroke-miterlimit:10;" x1="307.404" y1="257.477" x2="314.195" y2="252.766"/>
			<line style="fill:#FFFFFF;stroke:#263238;stroke-miterlimit:10;" x1="306.711" y1="261.08" x2="315.581" y2="256.369"/>
			<line style="fill:#FFFFFF;stroke:#263238;stroke-miterlimit:10;" x1="309.067" y1="263.298" x2="316.966" y2="259.418"/>
		</g>
		<polygon style="fill:#FFFFFF;stroke:#263238;stroke-miterlimit:10;" points="191.453,202.972 185.181,205.442 188.856,214.23 
			194.449,211.674 		"/>
		<g>
			<path style="fill:#FFFFFF;stroke:#263238;stroke-miterlimit:10;" d="M185.181,205.442l-6.072,0.639c0,0-2.876-4.154-4.314-4.474
				c-1.438-0.32-7.51-0.16-9.108-0.32c-1.598-0.16-6.232-0.639-7.031-0.639c-0.799,0-1.917,1.438,0.639,3.036
				c2.557,1.598,5.912,0.799,5.912,0.799l3.675,1.598c0,0-21.047,7.079-20.728,8.038c0.32,0.959,0.639,1.438,1.598,1.438
				c0.959,0,13.102-3.675,13.102-3.675l-0.799,1.758c0,0-12.463,6.551-12.304,7.35c0.16,0.799,0.639,1.278,1.278,1.278
				s12.463-5.433,12.463-5.433v1.758c0,0-10.226,7.35-9.907,8.149c0.32,0.799,2.237,0.32,2.237,0.32l10.226-5.433
				c0,0-7.031,7.19-6.711,7.67c0.32,0.479,0.799,0.479,1.598,0c0.799-0.479,9.268-7.031,9.268-7.031s9.702-3.404,10.501-4.043
				c0.799-0.639,2.557-3.036,2.557-3.036l4.953-2.397L185.181,205.442z"/>
			<path style="fill:#FFFFFF;stroke:#263238;stroke-miterlimit:10;" d="M168.404,207.839c0,0,3.196,2.557,3.995,3.196
				c0.799,0.639,6.232,0,6.232,0"/>
		</g>
		<path style="fill:none;stroke:#263238;stroke-miterlimit:10;" d="M277.143,207.409c0,0,11.894,16.566,14.867,19.115"/>
		<path style="fill:none;stroke:#263238;stroke-miterlimit:10;" d="M272.47,206.772c0,0,6.159,9.982,7.646,11.682"/>
		<line style="fill:none;stroke:#263238;stroke-miterlimit:10;" x1="261.062" y1="191.406" x2="256.329" y2="180.648"/>
		<line style="fill:none;stroke:#263238;stroke-miterlimit:10;" x1="253.355" y1="182.984" x2="258.877" y2="188.931"/>
		<polyline style="fill:none;stroke:#263238;stroke-miterlimit:10;" points="332.152,192.542 325.745,201.045 335.975,193.391 		"/>
	</g>
</g>
<g id="Pencil">
	<g>
		<path style="fill:#92E3A9;stroke:#263238;stroke-miterlimit:10;" d="M221.308,411.869l-28.731,59.269
			c-1.694,3.494-6.544,3.823-8.693,0.589l-36.981-55.619L126,49.201c-0.507-8.9,6.297-16.525,15.196-17.032l42.177-2.403
			c8.9-0.507,16.525,6.297,17.032,15.196L221.308,411.869z"/>
		<line style="fill:none;stroke:#263238;stroke-miterlimit:10;" x1="141.278" y1="237.277" x2="142.16" y2="254.338"/>
		<line style="fill:none;stroke:#263238;stroke-miterlimit:10;" x1="135.294" y1="124.087" x2="140.633" y2="224.808"/>
		<path style="fill:#7D7D7D;stroke:#263238;stroke-miterlimit:10;" d="M203.1,92.262l-2.695-47.3
			c-0.507-8.9-8.133-15.703-17.032-15.196l-42.177,2.403c-8.9,0.507-15.703,8.133-15.196,17.032l2.695,47.3L203.1,92.262z"/>
		<g>
			
				<rect x="129.26" y="94.361" transform="matrix(0.9984 -0.0569 0.0569 0.9984 -5.7236 9.6445)" style="fill:#FFFFFF;stroke:#263238;stroke-miterlimit:10;" width="74.613" height="22.019"/>
			
				<rect x="129.26" y="100.921" transform="matrix(0.9984 -0.0569 0.0569 0.9984 -5.7236 9.6445)" style="fill:#FFFFFF;stroke:#263238;stroke-miterlimit:10;" width="74.613" height="8.899"/>
		</g>
		<path style="fill:#FFFFFF;stroke:#263238;stroke-miterlimit:10;" d="M192.577,471.138l28.731-59.269
			c0,0-6.176-11.767-11.729-12.142c-5.553-0.375-15.301,10.551-15.301,10.551s-10.098-19.476-26.481-15.777
			c-12.139,2.741-20.895,21.606-20.895,21.606l36.981,55.619C186.033,474.96,190.883,474.632,192.577,471.138z"/>
		<path style="fill:#263238;stroke:#263238;stroke-miterlimit:10;" d="M165.272,443.736l18.611,27.991
			c2.15,3.233,7,2.904,8.693-0.589l14.436-29.78L165.272,443.736z"/>
		<line style="fill:none;stroke:#263238;stroke-miterlimit:10;" x1="183.01" y1="212.486" x2="178.495" y2="133.231"/>
		<line style="fill:none;stroke:#263238;stroke-miterlimit:10;" x1="192.08" y1="371.685" x2="183.627" y2="223.314"/>
		<line style="fill:none;stroke:#263238;stroke-miterlimit:10;" x1="193.532" y1="397.184" x2="192.472" y2="378.577"/>
	</g>
</g>
<g id="Floor">
	<line style="fill:none;stroke:#263238;stroke-miterlimit:10;" x1="51.944" y1="475.163" x2="466.553" y2="475.163"/>
</g>
</svg>
