<?xml version="1.0" encoding="UTF-8"?>
<svg xmlns="http://www.w3.org/2000/svg" xmlns:xlink="http://www.w3.org/1999/xlink" width="2001" height="2001" viewBox="0 0 2001 2001">
<path fill-rule="evenodd" fill="rgb(63.084412%, 54.492188%, 19.604492%)" fill-opacity="1" d="M 948.1875 1038.269531 L 1000 1073 L 1541.5 710 L 1700.78125 603.230469 L 1700.78125 693.921875 L 1082.109375 1109.121094 C 1052.75 1129.289062 1039 1134.898438 999.773438 1106.566406 L 940.160156 1066.898438 L 948.1875 1038.269531 "/>
<path fill-rule="evenodd" fill="rgb(100%, 85.9375%, 29.026794%)" fill-opacity="1" d="M 202 1435.722656 L 202 538.050781 L 458.5 710 L 948.1875 1038.269531 L 940.160156 1066.898438 L 999.773438 1106.566406 C 1039 1134.898438 1052.75 1129.289062 1082.109375 1109.121094 L 1700.78125 693.921875 L 1700.78125 1385.722656 C 1700.78125 1413.222656 1678.28125 1435.722656 1650.78125 1435.722656 L 202 1435.722656 "/>
<path fill-rule="evenodd" fill="rgb(63.084412%, 54.492188%, 19.604492%)" fill-opacity="1" d="M 1700.78125 693.921875 L 1700.78125 603.230469 L 1716.480469 592.699219 L 1779.699219 550.320312 L 1779.980469 564.671875 L 1781.460938 639.769531 L 1700.78125 693.921875 "/>
<path fill-rule="evenodd" fill="rgb(81.25%, 69.726562%, 23.535156%)" fill-opacity="1" d="M 1798 1479 C 1798 1506.5 1775.5 1529 1748 1529 L 252 1529 C 224.5 1529 202 1506.5 202 1479 L 202 1435.722656 L 1650.78125 1435.722656 C 1678.28125 1435.722656 1700.78125 1413.222656 1700.78125 1385.722656 L 1700.78125 693.921875 L 1781.460938 639.769531 L 1798 1479 "/>
<path fill-rule="evenodd" fill="rgb(81.25%, 69.726562%, 23.535156%)" fill-opacity="1" d="M 1700.78125 473 L 1748 473 C 1775.5 473 1798 495.5 1798 523 L 1798 538.050781 L 1700.78125 603.230469 L 1700.78125 473 "/>
<path fill-rule="evenodd" fill="rgb(100%, 85.9375%, 29.026794%)" fill-opacity="1" d="M 252 473 L 1700.78125 473 L 1700.78125 603.230469 L 1541.5 710 L 1000 1073 L 458.5 710 L 202 538.050781 L 202 523 C 202 495.5 224.5 473 252 473 "/>
<path fill-rule="nonzero" fill="rgb(0%, 0%, 0%)" fill-opacity="1" d="M 1826.351562 538.050781 L 1826.351562 1479 C 1826.351562 1500.574219 1817.539062 1520.167969 1803.351562 1534.355469 C 1789.171875 1548.539062 1769.578125 1557.347656 1748 1557.347656 L 252 1557.347656 C 230.425781 1557.347656 210.832031 1548.539062 196.644531 1534.355469 C 182.460938 1520.167969 173.652344 1500.574219 173.652344 1479 L 173.652344 538.050781 L 217.722656 514.578125 L 474.222656 686.53125 L 1000 1038.984375 L 1525.78125 686.53125 L 1782.28125 514.578125 Z M 1769.648438 1479 L 1769.648438 591.070312 L 1557.21875 733.480469 L 1015.71875 1096.476562 L 1000 1107.015625 L 984.277344 1096.476562 L 442.777344 733.480469 L 230.347656 591.070312 L 230.347656 1479 C 230.347656 1484.925781 232.789062 1490.332031 236.730469 1494.269531 C 240.667969 1498.210938 246.074219 1500.652344 252 1500.652344 L 1748 1500.652344 C 1753.929688 1500.652344 1759.328125 1498.210938 1763.269531 1494.269531 C 1767.210938 1490.332031 1769.648438 1484.925781 1769.648438 1479 "/>
<path fill-rule="nonzero" fill="rgb(0%, 0%, 0%)" fill-opacity="1" d="M 252 444.648438 L 1748 444.648438 C 1769.578125 444.648438 1789.171875 453.460938 1803.351562 467.648438 C 1817.539062 481.828125 1826.351562 501.421875 1826.351562 523 L 1826.351562 553.070312 L 1813.71875 561.53125 L 1557.21875 733.480469 L 1015.71875 1096.476562 L 1000 1107.015625 L 984.277344 1096.476562 L 442.777344 733.480469 L 186.277344 561.53125 L 173.652344 553.070312 L 173.652344 523 C 173.652344 501.421875 182.460938 481.828125 196.644531 467.648438 C 210.832031 453.460938 230.425781 444.648438 252 444.648438 Z M 1748 501.351562 L 252 501.351562 C 246.074219 501.351562 240.667969 503.789062 236.730469 507.730469 C 232.789062 511.671875 230.347656 517.070312 230.347656 523 L 230.347656 523.039062 L 474.222656 686.53125 L 1000 1038.984375 L 1525.78125 686.53125 L 1769.648438 523.039062 L 1769.648438 523 C 1769.648438 517.070312 1767.210938 511.671875 1763.269531 507.730469 C 1759.328125 503.789062 1753.929688 501.351562 1748 501.351562 "/>
</svg>
